<?xml version="1.0" ?><!DOCTYPE svg  PUBLIC '-//W3C//DTD SVG 1.1//EN'  'http://www.w3.org/Graphics/SVG/1.1/DTD/svg11.dtd'><svg height="100%" style="fill-rule:evenodd;clip-rule:evenodd;stroke-linejoin:round;stroke-miterlimit:2;" version="1.1" viewBox="0 0 64 64" width="100%" xml:space="preserve" xmlns="http://www.w3.org/2000/svg" xmlns:serif="http://www.serif.com/" xmlns:xlink="http://www.w3.org/1999/xlink"><g transform="matrix(1,0,0,1,-320,0)"><g id="twitter-apps-platform" transform="matrix(1,0,0,1,320,7.10543e-15)"><rect height="64" style="fill:none;" width="64" x="0" y="0"/><g transform="matrix(1,0,0,1,-320.493,0.5)"><path d="M373.998,20.269C373.999,20.345 374,20.423 374,20.5L374,22C374,39.661 359.661,54 342,54C335.675,54 329.777,52.161 324.811,48.99C330.838,48.839 336.453,47.019 341.212,43.974C336.649,43.678 332.777,40.826 331.016,36.836C331.662,36.944 332.324,37 333,37C334.036,37 335.041,36.868 336,36.621C330.827,35.288 327,30.587 327,25C327,24.915 327.001,24.831 327.003,24.747C328.614,25.907 330.524,26.676 332.594,26.918C329.224,24.679 327,20.847 327,16.5C327,14.372 327.533,12.367 328.473,10.611C333.522,17.684 341.612,22.437 350.826,22.953C351,22.963 351,21.329 351,20.5C351,14.153 356.153,9 362.5,9C365.913,9 368.982,10.49 371.088,12.855C374.162,12.426 376.938,11.065 379.121,9.067C378.128,11.832 376.345,14.222 374.045,15.964C376.253,15.812 378.331,15.181 380.174,14.174C378.761,16.762 376.607,18.889 373.998,20.269Z" style="fill:rgb(87,183,235);"/></g><g transform="matrix(1,0,0,1,-320,-7.10543e-15)"><path d="M373.215,26.843C371.093,42.453 357.696,54.5 341.507,54.5C335.183,54.5 329.285,52.661 324.319,49.49C327.411,49.413 330.396,48.896 333.212,47.999C336.561,49.291 340.198,50 344,50C358.203,50 370.114,40.109 373.215,26.843Z" style="fill:rgb(72,145,211);"/></g></g></g></svg>